<?xml version="1.0" standalone="no"?>
<!DOCTYPE svg PUBLIC "-//W3C//DTD SVG 20010904//EN"
 "http://www.w3.org/TR/2001/REC-SVG-20010904/DTD/svg10.dtd">
<svg version="1.0" xmlns="http://www.w3.org/2000/svg"
 width="1292.000000pt" height="1549.000000pt" viewBox="0 0 1292.000000 1549.000000"
 preserveAspectRatio="xMidYMid meet">

<g transform="translate(0.000000,1549.000000) scale(0.100000,-0.100000)"
fill="#000000" stroke="none">
<path d="M810 15486 c-3 -2 -25 -7 -49 -11 -23 -3 -55 -11 -70 -17 -30 -12
-35 -13 -124 -32 -37 -8 -71 -17 -76 -20 -4 -3 -28 -8 -52 -11 -24 -3 -51 -8
-60 -11 -16 -4 -29 -7 -123 -19 -44 -6 -96 -39 -96 -61 0 -8 -4 -14 -9 -14
-14 0 -50 -76 -53 -111 -1 -17 -6 -33 -10 -35 -9 -6 -9 -4 -10 -434 -1 -184 2
-409 7 -500 8 -147 9 -224 5 -445 0 -33 3 -85 8 -115 4 -30 6 -91 5 -135 -5
-145 -2 -222 9 -241 3 -5 5 -20 4 -34 -1 -14 4 -43 12 -65 7 -22 15 -45 16
-52 1 -7 5 -16 9 -19 4 -4 7 -17 7 -28 0 -11 21 -62 46 -113 37 -75 58 -104
112 -154 37 -33 82 -67 99 -75 56 -24 309 -21 400 5 17 5 34 7 37 3 3 -3 6 1
6 8 0 7 3 11 6 7 4 -3 19 0 35 9 16 8 31 15 34 15 2 0 19 5 37 10 18 5 47 12
63 14 25 4 89 25 165 53 22 8 43 13 58 14 6 1 12 5 12 10 0 4 7 8 16 8 16 0
183 62 216 80 10 6 27 10 37 10 11 0 23 5 26 11 4 6 13 8 21 5 7 -3 16 -1 19
4 3 5 13 9 23 9 9 -1 52 1 95 4 52 3 93 0 125 -10 26 -8 54 -16 62 -18 8 -2
47 -12 87 -23 55 -16 93 -19 165 -16 107 4 142 10 146 23 2 6 9 8 16 5 8 -3
18 11 26 38 8 24 21 54 30 68 31 46 32 88 5 146 -14 29 -25 56 -25 59 0 4 -9
19 -19 34 -11 15 -22 46 -24 69 -5 44 -49 165 -70 193 -7 9 -32 28 -57 44 -25
15 -47 31 -50 34 -3 4 -35 22 -72 40 -38 18 -68 38 -68 43 0 5 -4 7 -9 4 -5
-4 -11 -3 -13 2 -1 4 -25 25 -53 47 -88 70 -121 113 -131 170 -1 6 -8 24 -15
40 -7 17 -11 36 -10 43 1 6 -2 12 -7 12 -5 0 -13 19 -17 43 -5 23 -9 44 -10
47 -1 3 -5 32 -9 65 -20 165 -29 215 -47 271 -12 38 -17 73 -14 90 7 29 15
261 18 464 1 90 -2 111 -21 150 -37 73 -66 125 -74 128 -5 2 -8 8 -8 13 0 20
-51 85 -79 102 -38 22 -179 39 -336 41 -66 0 -124 4 -130 7 -12 8 -218 12
-225 5z"/>
<path d="M1925 15480 c-9 -14 4 -70 16 -70 6 0 8 -4 5 -9 -3 -4 -2 -22 3 -38
5 -18 5 -49 0 -74 -6 -24 -12 -55 -14 -67 -2 -13 -11 -32 -19 -41 -9 -10 -16
-23 -16 -30 0 -7 -4 -9 -10 -6 -6 4 -10 -6 -10 -22 0 -15 -4 -43 -10 -62 -5
-19 -12 -70 -15 -114 -3 -43 -8 -83 -11 -89 -8 -12 -7 -151 1 -208 9 -66 36
-160 46 -160 4 0 23 -22 41 -50 18 -27 36 -50 40 -50 5 0 8 -7 8 -15 0 -8 4
-15 10 -15 5 0 9 -3 8 -7 -4 -13 45 -73 58 -73 15 0 66 -45 59 -51 -2 -3 9
-13 25 -24 42 -28 67 -76 69 -136 1 -18 84 -146 106 -163 7 -6 23 -29 34 -51
12 -22 21 -35 21 -30 0 9 19 -20 36 -55 4 -8 15 -20 23 -27 9 -7 12 -13 7 -13
-10 0 37 -65 71 -97 13 -13 21 -23 18 -23 -3 0 -1 -6 5 -12 29 -35 80 -108 75
-108 -3 0 3 -8 13 -18 48 -52 91 -128 86 -156 -1 -12 14 -34 44 -61 46 -42 69
-53 41 -19 -12 15 -11 16 11 8 46 -15 146 -7 189 16 9 4 62 8 118 8 57 1 107
3 112 6 5 4 11 2 13 -2 3 -8 110 -63 131 -68 4 -1 10 -3 15 -4 4 -1 11 -2 16
-1 4 1 14 -3 22 -10 7 -6 18 -7 25 -3 7 4 24 8 38 10 14 2 51 8 81 13 30 5 58
7 61 5 3 -2 49 -6 102 -8 104 -6 127 -14 145 -55 23 -51 57 -81 93 -81 47 0
77 -23 81 -63 2 -17 8 -32 13 -33 6 0 28 -4 50 -9 22 -4 40 -7 40 -5 0 2 10
-2 23 -9 12 -7 35 -14 50 -16 15 -2 63 -11 107 -19 44 -9 97 -18 119 -22 21
-3 48 -8 60 -10 11 -3 37 -8 56 -11 19 -3 37 -8 40 -12 3 -3 17 -12 33 -18 15
-7 27 -17 27 -22 0 -14 87 -64 99 -57 5 4 12 2 16 -4 4 -6 13 -7 23 -1 9 4 25
7 34 6 10 -2 20 1 23 6 3 4 19 6 35 3 16 -4 50 -1 77 5 26 6 66 13 88 16 23 3
52 8 65 11 14 3 43 9 65 13 62 12 175 53 170 62 -3 4 4 10 14 14 26 8 158 139
166 165 3 11 10 20 15 20 5 0 18 26 30 58 12 31 28 67 36 80 8 12 12 22 8 22
-3 0 1 11 10 25 9 14 13 25 9 25 -5 0 -3 4 3 8 5 4 21 25 34 47 13 22 30 43
37 48 15 9 35 76 26 90 -3 6 -8 37 -10 71 -1 34 -5 82 -7 108 -1 26 1 53 5 60
5 7 9 9 9 3 1 -5 9 10 19 34 12 30 16 55 11 76 -10 45 -3 142 15 210 9 33 18
70 21 82 2 12 13 42 24 67 21 50 22 117 1 154 -7 13 -10 26 -8 29 3 3 0 21 -7
41 -24 69 -43 276 -27 296 8 10 22 63 23 83 0 5 4 13 8 18 15 18 4 182 -13
209 -19 29 -78 76 -95 76 -7 0 -12 4 -12 9 0 8 -78 42 -107 47 -6 1 -30 5 -53
8 -23 3 -45 8 -50 11 -5 3 -55 8 -111 10 -55 3 -105 7 -110 11 -5 3 -30 7 -56
10 -107 12 -166 68 -180 172 -5 40 -9 45 -52 64 -25 11 -55 26 -66 32 -22 12
-570 20 -589 8 -16 -9 -35 -12 -86 -12 -115 -1 -150 2 -150 11 0 13 -2157 12
-2165 -1z"/>
<path d="M6910 15483 c-8 -3 -46 -20 -85 -38 -38 -18 -92 -38 -120 -45 -27 -7
-58 -14 -67 -17 -12 -3 -18 1 -18 11 0 14 -17 16 -120 14 -133 -2 -232 -18
-259 -42 -10 -9 -22 -16 -27 -16 -13 0 -94 -80 -94 -92 0 -5 -12 -24 -26 -43
-23 -30 -24 -38 -16 -82 12 -68 8 -234 -7 -261 -7 -13 -13 -66 -14 -120 -1
-87 3 -132 19 -227 10 -57 12 -210 3 -245 -4 -19 -11 -53 -14 -75 -3 -22 -8
-56 -11 -75 -3 -19 -8 -51 -10 -70 -2 -19 -6 -44 -9 -56 -2 -12 -7 -39 -10
-60 -4 -21 -10 -55 -15 -74 -5 -19 -12 -62 -15 -95 -8 -101 -26 -167 -51 -194
-27 -30 -29 -88 -2 -118 8 -10 24 -43 33 -73 18 -54 20 -65 28 -146 3 -23 7
-46 9 -50 5 -9 -5 -120 -17 -184 -13 -69 -41 -116 -89 -148 -26 -18 -49 -32
-51 -32 -2 0 -16 -5 -32 -12 -15 -6 -32 -12 -38 -14 -33 -8 -93 -39 -111 -58
-60 -61 -93 -105 -98 -127 -3 -13 -10 -41 -15 -61 -5 -21 -7 -38 -5 -38 1 0
-15 -31 -37 -70 -21 -38 -39 -74 -39 -80 0 -5 -5 -10 -11 -10 -5 0 -8 -4 -4
-9 3 -5 1 -12 -3 -15 -12 -7 -8 -64 7 -109 7 -19 13 -75 15 -124 2 -48 5 -95
8 -103 15 -46 31 -74 60 -105 48 -49 60 -65 51 -65 -4 0 -2 -4 5 -8 7 -5 21
-34 32 -66 17 -46 20 -82 20 -184 0 -153 0 -158 2 -177 1 -14 108 -134 108
-122 0 4 8 -1 18 -10 30 -28 62 -53 62 -48 0 2 32 -10 71 -26 101 -43 150 -40
246 15 12 7 46 35 75 62 85 79 159 138 187 150 14 6 32 18 40 27 7 10 17 17
22 17 5 0 53 22 108 49 92 45 170 76 217 85 10 3 51 20 89 40 39 20 74 36 78
36 5 0 23 6 40 14 29 13 133 40 196 52 13 3 34 10 45 16 12 6 22 11 24 10 4
-4 57 9 72 17 20 11 82 26 94 23 4 -2 13 2 20 7 6 5 27 12 46 15 19 3 49 8 65
11 28 6 54 9 145 19 19 3 91 7 160 11 69 4 148 13 175 20 98 27 220 67 233 77
6 6 12 7 12 3 0 -5 25 18 55 49 37 39 58 71 65 100 6 22 15 54 20 69 5 15 7
33 5 40 -3 7 -9 42 -14 79 -5 38 -18 80 -29 95 -39 55 -45 158 -14 219 23 44
101 123 147 148 77 42 275 59 338 29 18 -9 52 -28 77 -43 31 -19 65 -30 110
-34 59 -6 161 -25 217 -42 18 -5 34 6 85 59 68 70 119 95 247 122 169 35 243
23 439 -71 62 -30 119 -54 127 -54 8 0 38 -9 67 -19 63 -23 146 -31 197 -21
20 5 54 11 76 14 60 8 97 16 130 26 17 5 66 14 110 20 44 6 107 16 140 21 86
16 172 18 822 23 655 6 678 8 816 77 95 48 175 73 281 88 43 6 82 14 87 17 5
3 9 365 9 839 l0 833 -32 8 c-18 4 -36 9 -40 10 -5 1 -14 2 -20 3 -7 1 -30 17
-50 36 -20 19 -41 35 -47 35 -5 0 -16 9 -24 21 -17 23 -15 143 3 164 24 29 38
93 29 131 -5 22 -12 48 -14 59 -3 11 -9 29 -14 40 -14 29 -24 58 -28 78 -1 10
-12 27 -23 39 -11 12 -20 25 -20 30 0 4 -19 20 -42 35 -24 16 -52 36 -62 46
-11 9 -23 18 -28 18 -27 4 -75 26 -82 37 -3 6 -24 19 -46 31 -37 19 -57 21
-233 21 l-192 -1 -60 -34 c-133 -76 -144 -77 -205 -13 l-46 48 -1153 0 -1152
0 -57 -26 c-40 -18 -72 -25 -107 -25 -46 2 -119 1 -270 0 -43 -1 -79 6 -125
25 l-65 26 -370 -1 c-342 -1 -496 -8 -585 -24 -19 -4 -46 -8 -60 -10 -14 -1
-25 -4 -25 -5 0 -1 -9 -4 -20 -5 -11 -1 -54 -10 -95 -19 l-75 -16 -22 25 c-12
14 -27 25 -33 25 -5 0 -10 7 -10 15 0 13 -34 15 -247 14 -137 0 -255 -3 -263
-6z"/>
<path d="M3479 12945 c-3 -2 -52 -6 -109 -9 -58 -3 -116 -8 -130 -11 -14 -3
-54 -8 -90 -10 -36 -3 -81 -7 -100 -10 -19 -2 -57 -5 -85 -6 -27 -2 -66 -9
-87 -16 -21 -7 -57 -15 -80 -17 -24 -2 -43 -5 -43 -6 0 -1 -11 -3 -25 -6 -14
-2 -36 -7 -50 -11 -14 -3 -27 -7 -30 -7 -3 -1 -9 -4 -15 -8 -5 -3 -37 -11 -70
-19 -33 -7 -66 -17 -73 -22 -7 -5 -15 -7 -19 -4 -3 4 -11 3 -18 -3 -9 -8 -78
-27 -160 -45 -21 -5 -99 -26 -250 -68 -49 -14 -114 -35 -142 -46 -29 -12 -53
-18 -53 -13 0 4 -4 2 -8 -5 -4 -6 -41 -19 -82 -28 -41 -9 -84 -18 -95 -21 -11
-2 -40 -7 -65 -10 -25 -3 -81 -14 -125 -25 -44 -11 -98 -24 -120 -28 -22 -5
-98 -22 -170 -39 -203 -46 -225 -47 -330 -14 -78 25 -145 33 -196 23 -3 -1
-27 -22 -55 -48 -82 -79 -115 -105 -143 -113 -29 -8 -85 12 -117 41 -11 10
-23 19 -27 19 -4 0 -15 8 -25 18 -37 35 -78 63 -99 68 -13 4 -23 10 -23 14 0
8 -78 22 -133 24 -23 1 -28 -4 -32 -29 -3 -16 -4 -1913 -3 -4215 l3 -4185 25
-3 c14 -2 34 -7 45 -12 11 -5 65 -22 121 -39 90 -27 143 -40 294 -73 61 -13
75 -16 75 -18 0 -1 15 -3 34 -6 19 -2 39 -8 45 -12 6 -5 29 -9 51 -11 115 -7
203 -31 290 -78 16 -9 66 -25 110 -34 199 -43 227 -50 246 -59 10 -6 19 -8 19
-4 0 3 10 0 23 -8 12 -7 49 -24 82 -37 33 -13 79 -32 102 -43 23 -10 59 -22
80 -25 21 -3 50 -12 65 -19 15 -8 34 -14 43 -14 10 0 51 -16 93 -36 122 -58
161 -74 185 -73 12 0 60 -2 107 -6 141 -10 169 -9 223 14 16 6 41 11 55 10 27
0 103 15 132 28 8 3 53 7 100 8 47 2 103 5 125 9 22 3 54 9 70 11 17 3 40 7
53 10 12 2 64 9 115 14 51 6 102 13 115 16 13 2 57 9 99 15 41 5 79 13 84 15
5 3 25 8 46 11 21 2 46 7 56 10 11 3 29 7 40 9 19 2 62 10 117 21 8 1 49 10
90 19 41 9 89 18 105 20 17 1 42 8 58 14 15 6 27 9 27 6 0 -2 15 1 33 6 17 6
48 13 67 16 19 3 44 10 55 16 11 6 26 12 34 13 7 2 34 7 60 13 25 6 55 11 66
11 11 0 43 1 70 1 28 1 76 -3 108 -9 72 -12 102 -9 152 13 22 10 47 18 55 19
24 1 38 36 34 86 -5 65 -14 133 -19 140 -4 7 -16 80 -18 108 0 6 -4 12 -8 12
-5 0 -11 16 -15 35 -3 19 -10 35 -15 35 -5 0 -9 9 -9 21 0 11 -5 30 -12 42 -7
12 -13 27 -14 32 -3 10 -9 38 -20 90 -4 17 -10 32 -14 35 -4 3 -10 64 -14 135
-4 72 -12 155 -19 185 -18 77 -11 264 13 375 6 28 11 57 10 65 0 8 0 39 0 69
0 34 -4 58 -12 63 -10 6 -10 10 1 17 7 5 11 13 8 17 -3 5 -8 47 -11 94 -6 82
-10 117 -21 205 -3 22 -7 78 -10 125 -3 47 -7 99 -10 115 -6 39 -19 389 -18
480 6 511 7 486 -18 550 -13 33 -24 65 -25 70 -41 194 -38 338 13 755 8 65 7
235 -2 300 -2 19 -6 55 -9 80 -2 25 -7 56 -10 70 -3 14 -8 52 -11 85 -2 33
-14 119 -25 190 -11 72 -22 150 -25 175 -3 25 -7 56 -10 70 -15 78 -19 114
-18 195 1 50 4 110 7 135 16 118 19 290 18 980 -1 410 -2 752 -3 760 -3 19 5
64 22 120 16 58 19 93 19 220 -1 107 -3 132 -21 255 -6 39 -12 84 -14 100 -3
17 -7 48 -11 70 -16 93 -20 131 -29 265 -4 52 -9 99 -12 104 -3 4 -7 54 -9
110 -2 90 -10 156 -30 266 -8 46 -10 52 -17 70 -4 8 -9 26 -11 40 -3 14 -6 27
-7 30 -1 3 -3 10 -4 15 -2 6 -4 12 -5 15 -2 6 -7 26 -14 58 -16 71 -32 109
-61 137 -25 26 -80 89 -123 143 -19 23 -38 40 -42 37 -5 -3 -10 -1 -12 4 -1 5
-21 11 -43 14 -22 3 -67 17 -100 31 -34 13 -83 27 -110 31 -95 12 -122 14
-126 10z"/>
<path d="M12805 12843 c-22 -15 -43 -33 -48 -40 -11 -18 -155 -84 -184 -84 -5
-1 -12 -4 -18 -9 -28 -22 -186 -28 -233 -8 -39 17 -245 25 -297 13 -16 -4 -46
-19 -65 -34 -19 -14 -41 -27 -50 -29 -38 -9 -91 -9 -96 -1 -3 5 -10 7 -15 4
-5 -4 -9 -1 -9 4 0 6 -6 11 -14 11 -8 0 -16 5 -18 12 -4 12 -269 14 -398 3
-36 -4 -72 -6 -80 -7 -8 0 -33 -4 -55 -8 -22 -5 -60 -11 -85 -15 -25 -3 -52
-8 -60 -10 -8 -3 -41 -7 -73 -10 -32 -3 -63 -7 -68 -11 -8 -5 -150 -23 -216
-27 -13 -1 -23 -5 -23 -9 0 -4 -10 -8 -22 -8 -30 1 -68 -5 -93 -13 -11 -3 -31
-8 -45 -11 -14 -2 -57 -14 -95 -26 -39 -12 -88 -21 -110 -20 -22 0 -47 1 -55
1 -25 1 -103 31 -135 52 -30 21 -110 97 -110 107 -1 3 -9 21 -19 40 -37 71
-83 99 -170 104 -38 3 -80 0 -95 -6 -14 -5 -34 -11 -43 -13 -9 -2 -42 -22 -72
-44 -30 -23 -58 -41 -61 -41 -3 0 -16 -9 -28 -21 -31 -29 -122 -89 -136 -89
-6 0 -11 -7 -11 -16 0 -8 -3 -13 -7 -11 -5 3 -8 -7 -9 -21 -1 -36 -9 -70 -17
-78 -21 -21 10 -161 41 -184 15 -11 41 -76 38 -95 -1 -11 -8 -33 -15 -50 -7
-17 -13 -73 -13 -130 -1 -89 2 -106 25 -154 36 -73 46 -129 48 -261 0 -41 4
-79 9 -85 12 -16 12 -15 16 -525 5 -488 7 -583 20 -785 8 -136 8 -157 -2 -220
-9 -61 -5 -175 6 -175 3 0 6 -8 7 -17 0 -10 15 -56 32 -103 17 -47 28 -92 25
-100 -4 -8 -9 -26 -11 -40 -2 -14 -8 -50 -14 -80 -25 -139 -43 -559 -25 -589
4 -6 5 -11 1 -11 -3 0 6 -17 19 -39 34 -53 55 -138 44 -176 -8 -30 -4 -172 8
-255 4 -25 7 -57 8 -72 0 -16 3 -28 6 -28 3 0 5 -21 4 -47 -1 -27 -3 -48 -4
-48 -1 0 -3 -9 -5 -20 -4 -25 -9 -44 -18 -70 -5 -17 -18 -131 -19 -175 0 -8
-5 -37 -10 -63 -6 -31 -6 -52 0 -60 5 -7 9 -32 7 -56 -1 -24 4 -59 11 -77 8
-18 12 -45 9 -61 -3 -15 -7 -44 -10 -63 -3 -19 -7 -108 -8 -196 -2 -120 -6
-166 -17 -178 -7 -10 -15 -32 -17 -49 -7 -55 -6 -190 1 -237 4 -25 8 -70 10
-100 2 -30 8 -116 12 -190 13 -190 7 -402 -12 -463 -3 -11 -8 -53 -10 -95 -2
-43 -6 -126 -9 -187 -3 -60 -8 -132 -10 -160 -6 -88 -6 -328 0 -395 4 -36 7
-114 9 -175 1 -64 7 -119 14 -133 7 -12 9 -22 5 -22 -4 0 -3 -4 3 -8 30 -19
58 -231 36 -267 -4 -5 -8 -16 -9 -23 -2 -6 -5 -20 -7 -30 -3 -9 -5 -26 -6 -37
-1 -19 -2 -19 -9 -1 -13 34 -20 2 -10 -49 6 -28 12 -97 14 -155 5 -104 18
-160 38 -160 6 0 8 -3 4 -6 -6 -7 31 -61 68 -100 11 -11 39 -42 63 -67 23 -26
44 -47 47 -47 9 0 55 -51 55 -61 0 -6 4 -8 9 -5 4 3 20 -19 34 -48 24 -49 29
-63 42 -133 11 -54 12 -55 63 -49 101 14 134 14 161 3 31 -13 92 -61 153 -119
21 -20 38 -34 38 -31 0 4 8 -1 18 -9 15 -14 25 -14 79 -3 34 7 79 22 100 33
96 49 132 58 238 56 85 -1 204 -11 245 -19 14 -3 41 -8 60 -11 19 -2 49 -8 65
-11 17 -3 44 -7 60 -9 89 -8 152 -26 260 -74 49 -21 110 -27 184 -16 50 6 121
27 127 37 3 5 13 9 23 9 10 0 31 6 47 14 16 8 36 16 44 18 8 2 18 7 21 12 10
13 129 17 129 4 0 -5 7 -8 14 -5 14 6 60 -32 62 -50 6 -66 30 -135 60 -168
l33 -38 83 1 c46 0 119 3 164 6 69 4 160 -7 219 -28 6 -2 13 -4 17 -5 4 -1 22
-7 40 -12 18 -6 42 -12 53 -15 28 -7 93 -6 105 1 7 4 10 1589 10 4781 0 4540
-1 4774 -17 4774 -10 0 -27 3 -38 5 -12 4 -35 -5 -60 -22z"/>
<path d="M8637 12553 c-20 -21 -50 -49 -68 -62 -44 -34 -51 -61 -54 -194 -3
-105 -6 -123 -30 -169 -51 -98 -57 -124 -56 -275 1 -140 1 -143 32 -203 l32
-60 -17 -58 c-9 -31 -17 -63 -17 -69 4 -105 4 -107 -19 -125 -13 -10 -29 -16
-37 -13 -7 3 -19 8 -27 11 -8 3 -24 -4 -36 -16 -18 -18 -21 -30 -17 -63 8 -68
31 -140 64 -200 11 -21 13 -45 8 -102 -6 -71 -5 -77 21 -110 36 -48 42 -112
16 -186 -17 -48 -19 -74 -15 -160 2 -57 11 -125 19 -151 19 -57 6 -115 -35
-168 -15 -19 -33 -44 -39 -56 -14 -27 -10 -212 6 -241 11 -21 9 -24 -28 -43
l-41 -21 7 -92 c9 -128 7 -289 -5 -372 -16 -107 -15 -116 29 -164 22 -25 40
-52 40 -61 0 -9 -23 -55 -51 -101 l-51 -84 -3 -155 c-1 -85 -6 -186 -10 -225
-11 -102 -11 -110 -1 -112 12 -2 46 -60 49 -83 2 -11 6 -22 9 -25 3 -3 -1 -38
-8 -76 -9 -49 -11 -109 -7 -195 4 -93 3 -127 -7 -139 -7 -8 -9 -15 -5 -15 5 0
1 -8 -8 -18 -18 -20 -18 -75 1 -108 6 -12 14 -37 17 -55 2 -19 11 -61 20 -94
8 -33 22 -93 31 -133 l15 -74 -62 -58 -61 -58 4 -71 c3 -54 8 -76 24 -91 l20
-21 37 25 37 25 6 -23 c3 -12 4 -45 2 -72 -3 -47 -5 -50 -45 -68 -44 -20 -49
-30 -43 -94 2 -30 -22 -66 -59 -88 -40 -24 -51 -59 -51 -169 0 -118 24 -224
67 -297 l34 -58 -21 -47 c-11 -26 -19 -58 -16 -73 3 -14 8 -59 11 -100 6 -71
16 -101 65 -190 21 -39 25 -94 9 -160 -6 -25 -10 -66 -10 -91 0 -43 -4 -51
-45 -89 l-44 -41 17 -30 c24 -41 40 -53 71 -54 22 0 29 -8 45 -50 15 -40 18
-70 15 -146 -2 -53 -9 -103 -15 -111 -7 -7 -15 -29 -18 -47 -6 -38 -23 -74
-65 -146 -30 -50 -30 -50 -25 -180 2 -71 7 -143 10 -160 3 -16 7 -46 10 -65 6
-38 31 -123 45 -155 27 -59 42 -157 42 -260 0 -60 -3 -121 -7 -135 -3 -14 -8
-41 -11 -60 -7 -45 -25 -100 -41 -125 -18 -27 -16 -68 5 -92 45 -51 130 -52
298 -2 59 18 198 29 378 29 179 1 182 1 266 -30 47 -17 121 -44 165 -60 90
-33 146 -38 169 -14 21 21 20 53 -5 138 -19 63 -21 87 -16 206 4 74 9 165 13
201 5 54 2 81 -19 155 -14 49 -28 123 -31 164 -3 41 -8 88 -11 103 -3 15 -1
45 4 65 6 20 11 42 11 47 1 6 8 21 17 34 18 28 22 109 7 142 -26 55 -33 81
-43 155 -14 102 -23 480 -25 1059 -1 325 -5 475 -14 510 -35 143 -50 275 -51
461 -2 185 -1 191 23 235 22 38 24 49 15 84 -9 39 -12 269 -4 330 2 17 7 59
11 95 4 36 11 74 17 85 29 54 42 286 40 670 -1 88 -17 189 -34 210 -4 6 -8 13
-8 18 -1 4 -1 8 -2 10 -12 35 -16 226 -6 307 3 26 15 91 26 145 16 78 20 126
17 215 -4 116 -5 128 -26 255 -8 47 -10 112 -5 195 16 289 10 553 -19 799 -3
25 -8 82 -11 126 -3 44 -13 121 -22 170 -8 50 -19 191 -23 315 -5 124 -11 239
-14 255 -3 17 -8 68 -11 115 -9 127 -11 133 -55 153 -50 23 -62 58 -31 91 19
20 21 32 18 91 -2 38 3 98 10 134 16 74 11 193 -11 246 -17 39 -51 65 -87 65
-15 0 -71 -12 -124 -26 l-97 -26 -99 32 c-81 26 -106 39 -145 76 -26 24 -55
44 -64 44 -9 0 -33 -17 -53 -37z"/>
<path d="M4581 12416 c-25 -11 -26 -19 -6 -49 24 -37 28 -118 9 -176 -17 -53
-69 -115 -87 -104 -6 4 -8 0 -4 -11 4 -10 7 -30 7 -45 0 -18 15 -44 43 -75 31
-36 43 -59 47 -92 3 -24 2 -44 -3 -44 -5 0 -7 -6 -4 -12 2 -7 0 -23 -4 -35 -4
-12 -11 -44 -14 -70 -3 -26 -8 -61 -11 -78 -7 -33 -46 -75 -70 -75 -8 0 -12
-4 -9 -10 7 -11 -24 -71 -43 -83 -7 -5 -11 -16 -8 -25 3 -9 8 -33 11 -53 8
-50 47 -159 73 -203 12 -21 22 -41 22 -45 0 -10 39 -141 50 -166 5 -11 14 -38
21 -60 7 -22 18 -49 25 -61 20 -29 18 -120 -3 -174 -8 -20 -10 -28 -12 -44 0
-7 -17 -21 -36 -30 -37 -18 -38 -23 -38 -116 0 -48 12 -207 19 -250 3 -19 5
-71 4 -115 -3 -171 -2 -263 6 -330 4 -38 7 -110 7 -160 -1 -49 -2 -144 -2
-210 -1 -66 3 -145 9 -175 21 -103 27 -203 16 -290 -3 -25 -8 -64 -11 -86 -3
-23 -18 -69 -35 -103 -31 -62 -32 -78 -10 -161 6 -19 10 -49 10 -66 0 -17 3
-33 6 -37 3 -3 8 -28 10 -54 11 -165 16 -269 16 -345 0 -77 2 -88 19 -93 10
-4 19 -11 19 -17 0 -6 3 -8 6 -5 11 10 43 -37 49 -72 3 -20 0 -40 -11 -56 -9
-14 -14 -28 -11 -32 4 -3 0 -21 -8 -39 -19 -47 -44 -147 -55 -223 -7 -52 -6
-71 7 -98 15 -33 10 -81 -6 -54 -33 53 -15 -189 19 -260 9 -21 16 -54 15 -75
-1 -21 2 -54 6 -73 32 -154 65 -193 224 -262 11 -5 27 -13 35 -19 20 -13 73
-34 83 -32 4 1 7 -3 7 -8 0 -5 3 -9 8 -8 4 1 20 -4 36 -11 16 -6 31 -9 34 -7
3 3 -3 8 -12 12 -9 3 -16 11 -16 16 0 6 15 1 33 -10 18 -10 51 -23 73 -27 21
-5 46 -10 54 -12 60 -16 245 -30 280 -21 51 13 166 89 163 107 -2 6 2 11 7 11
6 0 10 6 10 13 0 17 46 41 80 42 14 1 35 6 47 13 12 7 28 12 35 12 21 0 75
-61 82 -92 4 -16 13 -28 22 -28 27 0 92 53 110 90 14 29 32 95 35 135 1 6 -2
60 -6 120 -4 61 -8 131 -9 157 -1 26 -4 49 -6 52 -10 9 -2 293 8 312 22 40 30
154 17 239 -18 124 -9 372 15 403 2 1 3 10 5 20 1 9 5 24 8 32 3 8 16 44 28
80 23 69 45 110 66 123 7 4 13 13 13 20 0 16 31 35 52 32 23 -4 78 -46 78 -61
0 -7 21 -31 46 -53 44 -39 46 -43 41 -82 -4 -29 0 -50 12 -73 10 -17 26 -56
36 -86 10 -30 20 -59 24 -65 9 -16 7 -135 -3 -135 -33 0 69 -134 105 -138 127
-15 126 -15 160 9 19 13 35 24 37 25 6 3 30 132 26 137 -2 2 -7 24 -10 48 -4
24 -10 51 -14 59 -11 21 -4 212 10 295 10 55 10 70 0 73 -7 3 -21 13 -30 22
-10 10 -21 16 -24 12 -3 -3 -6 0 -6 6 0 7 -3 11 -7 10 -5 -1 -24 6 -43 16 -32
16 -100 102 -100 126 0 6 -11 32 -24 58 -25 48 -49 160 -61 287 -4 39 -9 86
-11 105 -7 63 -5 200 3 213 4 6 9 21 10 32 2 11 11 54 20 95 10 41 18 80 18
85 0 6 3 12 7 15 3 3 9 32 13 65 3 33 10 80 15 105 15 70 7 189 -15 235 -22
45 -70 74 -122 75 -18 0 -33 5 -33 10 0 6 -7 10 -15 10 -14 0 -20 14 -27 64
-2 12 -15 23 -33 28 -47 12 -113 125 -130 223 -15 86 -12 249 6 320 l17 70
-31 58 c-17 31 -34 57 -39 57 -4 0 -8 5 -8 11 0 6 -26 36 -57 66 -74 71 -116
83 -276 78 -133 -4 -170 -18 -243 -91 -44 -43 -97 -121 -97 -141 0 -8 -13 -13
-33 -13 -39 0 -42 -9 -49 -151 -4 -87 -9 -136 -21 -193 -2 -11 -7 -34 -10 -51
-4 -16 -6 -38 -6 -47 0 -10 -3 -18 -7 -18 -4 0 -8 -6 -9 -12 -2 -24 -28 -103
-40 -125 -22 -40 -110 -64 -120 -33 -2 6 -12 10 -22 10 -25 0 -101 76 -124
125 -11 22 -25 52 -33 67 -8 15 -14 30 -13 33 2 24 -1 29 -9 17 -6 -11 -10
-10 -16 5 -8 20 -10 26 -19 93 -4 25 -11 47 -16 48 -6 2 -10 10 -10 18 0 8 -4
14 -10 14 -5 0 -10 7 -10 15 0 8 -4 15 -9 15 -24 0 -28 113 -10 270 16 139 19
158 34 186 8 15 12 30 11 33 -2 3 -6 29 -10 58 -7 64 -15 83 -31 83 -23 0 -38
70 -23 109 5 13 11 47 14 75 2 28 9 55 14 60 12 12 0 79 -17 89 -7 5 -11 12
-8 17 3 5 -13 15 -36 21 -43 13 -57 34 -64 94 -9 77 -17 123 -27 153 -12 38
-2 160 14 180 6 7 8 15 5 19 -4 3 -2 12 4 20 6 7 8 13 3 13 -4 0 0 6 10 13 14
10 16 19 10 38 -4 13 -7 28 -6 33 2 4 -1 13 -6 20 -6 6 -13 27 -16 46 -15 73
-65 192 -78 184 -4 -3 -8 -1 -8 4 0 12 -61 11 -89 -2z m16 -4017 c2 -16 -1
-19 -9 -11 -5 5 -7 15 -4 21 10 15 12 14 13 -10z m3 -94 c0 -36 -3 -65 -7 -65
-5 0 -8 29 -8 65 0 36 3 65 8 65 4 0 7 -29 7 -65z"/>
<path d="M7527 11504 c-1 -1 -23 -5 -49 -8 -50 -6 -126 -30 -168 -51 -25 -13
-66 -55 -54 -55 4 0 1 -6 -5 -14 -6 -7 -10 -38 -9 -68 1 -37 -3 -60 -12 -70
-8 -9 -22 -26 -30 -38 -37 -54 -49 -63 -80 -57 -29 6 -30 5 -31 -31 -7 -156 5
-222 46 -272 10 -13 18 -49 29 -130 1 -9 5 -21 10 -28 4 -6 4 -12 0 -12 -3 0
0 -10 8 -22 8 -13 18 -41 22 -63 4 -22 9 -51 11 -65 9 -48 5 -218 -5 -244 -5
-14 -7 -26 -5 -26 3 0 -1 -16 -9 -35 -9 -20 -15 -38 -15 -40 0 -3 -9 -26 -20
-50 -11 -25 -19 -47 -18 -48 1 -1 -8 -15 -20 -31 -13 -16 -23 -33 -23 -38 0
-14 -80 -89 -90 -83 -4 2 -8 -5 -8 -18 0 -12 -4 -47 -8 -77 -9 -65 -11 -291
-4 -382 3 -35 2 -79 -2 -99 -4 -19 -9 -62 -12 -95 -2 -32 -7 -66 -10 -74 -13
-36 -14 -88 -4 -125 6 -22 11 -43 10 -47 -1 -4 7 -10 18 -13 11 -4 20 -10 20
-13 0 -4 15 -16 34 -26 25 -13 43 -37 69 -90 20 -39 38 -82 40 -96 3 -14 8
-32 11 -40 2 -8 7 -33 10 -55 3 -22 8 -53 12 -70 12 -55 6 -420 -6 -420 -4 0
-9 -85 -14 -242 -3 -84 -2 -153 2 -153 10 0 10 -60 0 -61 -28 -4 -47 -2 -78
10 -19 7 -53 14 -75 15 -22 2 -49 6 -60 9 -14 5 -30 -2 -55 -23 -19 -17 -45
-30 -57 -30 -12 0 -24 -4 -27 -9 -9 -14 -93 -33 -138 -31 -24 2 -92 2 -152 2
-107 -1 -111 -2 -155 -34 -122 -87 -165 -172 -162 -318 3 -176 14 -365 21
-365 1 0 4 -13 6 -30 3 -16 12 -52 19 -80 8 -27 17 -67 19 -87 3 -21 12 -59
22 -85 14 -42 20 -64 23 -83 1 -3 12 -18 25 -33 14 -16 27 -34 29 -40 3 -9 13
-9 38 1 77 30 97 30 162 4 16 -7 33 -12 38 -12 5 0 9 -4 9 -10 0 -5 5 -9 11
-7 6 1 25 -23 42 -53 45 -78 100 -132 132 -132 15 -1 38 -11 51 -23 30 -28 86
-40 114 -25 11 6 20 8 20 5 0 -8 83 27 109 47 16 12 38 18 65 16 59 -3 127 20
159 53 l29 28 26 -32 c15 -18 31 -38 37 -45 5 -7 17 -21 26 -31 8 -10 18 -25
22 -33 12 -33 64 -47 160 -44 99 3 145 18 188 58 22 21 27 34 28 84 0 32 5 73
10 91 5 18 8 40 6 50 -1 10 0 23 4 28 7 13 11 33 13 75 1 28 -6 43 -40 80 -23
25 -42 48 -42 52 0 5 -6 8 -13 8 -19 0 -63 106 -76 184 -12 66 -11 70 15 120
29 56 84 111 127 127 15 6 27 15 27 20 0 5 6 9 13 9 8 0 25 10 38 21 13 12 34
28 47 37 22 14 22 15 5 34 -14 16 -18 35 -16 92 3 114 3 169 -1 196 -4 32 -35
166 -47 203 -12 41 -3 213 15 272 20 64 21 57 -14 93 -20 21 -30 43 -31 64 -2
62 -2 93 0 114 0 12 38 64 84 115 97 110 126 154 133 206 10 61 11 155 3 193
-4 19 -10 72 -12 117 -3 44 -7 85 -10 90 -3 4 -8 26 -11 48 -8 51 -26 105 -34
105 -6 0 -45 84 -47 100 0 3 -6 15 -13 26 -6 12 -9 24 -6 27 3 3 1 15 -6 27
-13 24 -7 49 20 80 11 12 17 27 14 31 -3 5 0 9 6 9 7 0 9 8 5 19 -3 11 1 46
10 79 26 104 12 212 -30 228 -31 12 -16 41 25 49 28 5 48 28 52 56 2 13 7 29
10 35 26 41 33 203 13 294 -9 41 -18 86 -21 100 -3 14 -13 53 -23 87 -10 34
-17 81 -15 105 4 44 5 52 18 103 22 92 28 119 42 210 19 118 19 145 1 188 -20
47 -34 81 -37 92 -1 6 -11 22 -21 37 -10 14 -19 31 -19 37 0 5 -16 37 -35 70
-19 32 -35 62 -35 66 0 13 -86 93 -118 109 -18 9 -50 19 -70 22 -40 6 -220 12
-225 8z"/>
<path d="M5130 6174 c-8 -3 -33 -14 -55 -25 -63 -29 -104 -45 -122 -48 -12 -2
-83 -67 -83 -76 0 -4 -11 -17 -24 -29 -13 -11 -34 -40 -46 -62 -25 -49 -68
-217 -66 -256 1 -16 -1 -28 -4 -28 -7 0 -29 -102 -35 -165 -2 -22 -6 -54 -9
-72 -5 -36 -42 -147 -60 -178 -7 -12 -13 -126 -17 -300 -4 -154 -10 -302 -15
-330 -4 -27 -7 -107 -6 -176 l0 -127 60 -138 c33 -77 71 -150 84 -164 62 -65
121 -103 167 -106 41 -3 114 -11 181 -19 25 -4 62 -7 83 -8 20 -1 37 -4 37 -7
0 -3 15 -6 33 -6 49 -3 76 -5 152 -15 39 -5 93 -11 120 -14 92 -9 140 -15 175
-20 19 -3 62 -8 95 -10 86 -6 104 -11 129 -37 30 -31 76 -69 76 -63 0 3 17 -6
37 -20 21 -14 41 -25 46 -25 11 0 121 -71 125 -80 1 -4 17 -23 35 -42 18 -20
46 -57 62 -82 16 -25 33 -46 38 -46 4 0 5 -4 2 -10 -3 -5 2 -10 11 -10 10 0
14 -3 11 -7 -17 -16 110 -81 153 -78 55 3 179 36 191 51 6 8 17 14 24 14 13 0
137 36 170 50 26 10 92 28 132 35 18 3 43 9 56 14 14 5 60 8 103 5 100 -5 104
-6 104 -16 0 -4 11 -8 24 -8 14 0 27 -4 30 -9 3 -5 16 -9 28 -10 13 0 61 -7
108 -14 79 -13 120 -10 170 10 8 4 17 7 20 7 3 1 47 43 99 93 52 51 98 90 102
87 5 -3 9 1 9 8 0 7 18 29 40 48 23 20 42 45 43 58 0 12 7 24 14 26 7 3 13 12
13 20 0 7 7 17 15 20 9 3 15 11 14 18 -2 13 14 53 52 133 10 23 21 56 23 75 3
19 6 36 7 38 1 1 2 5 3 10 1 4 4 12 8 17 10 16 2 125 -10 137 -10 10 -24 14
-70 20 -9 1 -11 9 -7 22 4 12 10 37 14 56 9 40 31 90 40 90 3 0 6 21 6 48 -1
26 3 58 8 72 11 30 15 78 22 230 4 112 8 160 20 305 3 39 14 96 23 128 11 35
18 83 17 122 -2 55 -6 69 -34 104 -18 22 -46 49 -62 58 -16 10 -29 20 -29 24
0 3 -19 12 -42 19 -24 7 -70 21 -103 31 -33 10 -96 20 -140 22 -111 7 -116 8
-130 51 -7 21 -16 40 -19 43 -3 3 -25 0 -48 -6 -24 -7 -52 -12 -63 -12 -26 0
-144 124 -170 179 -11 23 -23 42 -27 42 -5 0 -8 6 -8 13 0 13 -39 94 -55 114
-5 6 -20 29 -33 50 -41 68 -64 78 -172 78 -52 0 -104 -4 -115 -9 -23 -10 -29
-12 -70 -19 -49 -8 -97 -34 -145 -77 -24 -22 -48 -40 -53 -40 -4 0 -5 -4 -2
-10 3 -5 1 -10 -4 -10 -6 0 -11 -7 -11 -15 0 -8 -3 -15 -8 -15 -4 0 -13 -14
-21 -32 -20 -44 -51 -126 -51 -136 -1 -4 -3 -16 -5 -27 -2 -11 -7 -45 -11 -75
-11 -95 -21 -138 -37 -157 -5 -7 -6 -13 -1 -13 4 0 -2 -10 -14 -23 -25 -26
-44 -28 -82 -7 -27 14 -90 74 -90 85 0 3 -15 21 -32 38 -66 65 -117 126 -153
182 -44 68 -151 179 -183 189 -12 4 -19 12 -16 18 4 7 2 8 -4 4 -6 -4 -24 2
-39 13 -16 11 -51 24 -78 30 -56 11 -192 7 -241 -8 -36 -10 -52 -3 -110 48
-68 61 -115 95 -147 109 -34 15 -153 25 -177 16z"/>
<path d="M467 3535 c-30 -12 -67 -31 -82 -43 -14 -11 -33 -18 -41 -15 -21 8
-51 -23 -75 -76 -21 -48 -65 -206 -75 -269 -3 -21 -14 -74 -25 -120 -11 -46
-21 -97 -22 -113 -1 -16 -4 -29 -7 -29 -7 0 -3 -606 4 -677 3 -29 12 -68 19
-85 8 -18 34 -93 57 -165 39 -121 42 -136 32 -175 -6 -24 -14 -58 -17 -75 -7
-36 -16 -41 -35 -18 -17 20 -43 19 -63 -2 -8 -10 -15 -20 -15 -23 0 -15 -16
-87 -22 -100 -12 -22 15 -143 44 -201 14 -28 16 -50 10 -129 -4 -52 -10 -104
-14 -115 -7 -21 -6 -46 7 -135 4 -30 8 -94 8 -141 0 -81 -2 -90 -31 -130 -30
-42 -31 -46 -19 -87 7 -23 19 -49 25 -57 7 -8 9 -15 6 -15 -4 0 1 -12 12 -28
11 -15 23 -45 26 -67 4 -21 10 -42 15 -45 5 -3 13 -21 19 -41 10 -37 25 -59
80 -115 29 -31 39 -36 58 -33 3 0 16 -7 30 -16 39 -25 103 -45 109 -34 4 5 10
7 14 5 12 -8 51 23 51 39 0 19 39 54 67 61 15 4 39 -4 73 -25 27 -17 50 -28
50 -25 0 3 10 -2 22 -10 40 -28 55 -20 68 33 6 27 19 52 27 55 9 4 13 9 10 13
-4 3 5 15 19 26 l26 20 40 -23 c23 -13 49 -31 59 -41 11 -11 30 -19 44 -19 24
0 77 31 110 64 9 9 39 26 66 37 27 12 49 25 49 28 0 9 81 45 125 57 73 19 134
9 135 -23 1 -23 50 -61 90 -71 64 -16 298 -7 331 14 5 3 33 9 62 15 140 25
206 50 226 85 28 50 34 53 82 42 54 -11 106 -10 130 3 11 5 19 7 19 3 0 -3 6
-1 13 5 8 6 31 13 53 16 21 3 53 7 69 10 23 3 154 15 195 17 59 3 93 -5 113
-26 17 -18 31 -23 57 -21 64 5 254 16 330 20 65 2 129 9 180 19 8 2 31 10 50
19 19 8 38 13 43 10 4 -2 14 1 22 7 8 7 15 10 15 7 0 -3 17 -1 38 4 20 4 71
11 112 15 41 3 76 7 78 9 14 13 195 -67 247 -110 17 -14 34 -25 38 -25 5 0 15
-6 22 -14 19 -18 126 -30 258 -27 94 2 114 -1 144 -19 19 -11 39 -17 45 -14 6
4 27 11 47 16 20 5 43 11 51 13 59 17 157 34 216 36 101 5 111 -6 91 -101 -5
-25 -59 -100 -71 -100 -7 0 -21 -8 -32 -19 -11 -10 -30 -24 -42 -30 -12 -6
-22 -16 -22 -21 0 -18 71 -74 97 -77 52 -6 104 -3 121 6 9 5 20 9 25 10 18 2
188 91 219 115 19 14 39 26 44 26 11 0 38 29 52 57 9 16 62 162 62 169 0 1
-18 5 -39 9 -22 4 -48 14 -58 23 -23 21 -56 72 -47 72 4 0 0 8 -9 18 -8 9 -23
36 -32 58 -10 26 -32 53 -58 72 -40 28 -60 33 -172 46 -70 9 -128 33 -172 73
-33 29 -58 43 -78 44 -16 0 -39 3 -50 5 -11 2 -38 6 -60 10 -22 3 -47 8 -55
11 -8 4 -18 6 -21 5 -4 -1 -53 17 -110 38 -57 22 -109 40 -116 40 -6 0 -13 3
-15 8 -1 4 -31 22 -66 39 -54 27 -67 30 -95 21 -51 -16 -84 -19 -217 -20 -144
-1 -160 2 -206 37 -53 41 -84 87 -84 128 0 38 13 51 92 92 69 36 163 194 127
215 -7 5 -16 7 -19 5 -4 -2 -29 14 -56 37 -80 66 -124 77 -212 52 -32 -9 -70
-26 -87 -39 -81 -60 -138 -64 -194 -12 -14 14 -37 28 -51 32 -33 10 -90 47
-114 74 -11 11 -23 21 -28 21 -20 0 -37 29 -56 97 -16 58 -28 78 -62 110 -23
21 -46 40 -51 41 -5 2 -9 8 -9 12 0 13 -88 98 -95 92 -3 -3 -5 0 -5 6 0 7 -8
20 -17 31 -10 10 -30 32 -45 48 -33 36 -135 64 -251 67 -87 2 -111 16 -109 64
0 16 -5 29 -11 29 -21 1 -42 8 -48 16 -3 5 -20 9 -37 9 -18 1 -32 5 -32 10 0
5 -4 7 -9 3 -5 -3 -12 -1 -16 4 -3 6 -12 8 -20 4 -8 -3 -15 0 -15 6 0 6 -8 11
-18 11 -10 0 -27 7 -38 15 -10 8 -31 15 -46 15 -15 0 -34 7 -42 16 -9 8 -16
13 -16 9 0 -3 -8 -1 -18 4 -11 6 -30 12 -43 15 -13 3 -41 11 -63 19 -34 13
-42 12 -70 -2 -31 -16 -122 -20 -210 -8 -41 5 -86 38 -86 63 0 8 -4 14 -10 14
-5 0 -10 7 -10 15 0 21 -21 57 -42 73 -10 7 -18 20 -18 28 0 8 -4 14 -8 14 -4
0 -20 26 -34 58 -15 31 -36 67 -47 79 -12 12 -21 27 -21 33 0 5 -4 10 -10 10
-5 0 -10 5 -10 10 0 6 -8 20 -18 30 -10 11 -29 40 -41 66 -18 35 -22 54 -16
87 6 38 7 197 1 257 -3 34 -22 67 -47 81 -25 13 -66 -1 -97 -34 -33 -36 -52
-48 -61 -43 -5 3 -14 -1 -21 -9 -7 -8 -9 -15 -6 -15 4 0 0 -7 -8 -16 -9 -8
-14 -19 -11 -24 8 -13 -36 -40 -65 -40 -14 0 -44 13 -67 30 -39 29 -113 43
-139 27 -11 -6 -63 17 -116 53 -37 24 -69 75 -74 115 -5 51 -31 91 -67 102
-30 9 -44 7 -90 -12z"/>
<path d="M5607 3544 c-3 -3 -31 -7 -62 -9 -31 -3 -65 -7 -75 -10 -43 -14 -70
-17 -146 -16 -71 1 -86 -2 -118 -24 -20 -14 -41 -25 -47 -25 -13 0 -61 -31
-76 -50 -7 -8 -13 -11 -13 -6 0 6 -6 2 -12 -7 -18 -22 -129 -88 -139 -81 -5 3
-9 1 -9 -5 0 -5 -12 -12 -27 -15 -16 -4 -39 -9 -53 -12 -14 -3 -71 -8 -126
-11 -81 -4 -107 -2 -133 11 -17 9 -31 21 -31 27 0 20 -36 48 -60 47 -57 -1
-77 -10 -95 -41 -32 -57 -56 -77 -92 -77 -18 0 -33 -4 -33 -10 0 -5 -14 -17
-31 -26 -47 -24 -76 -63 -94 -125 -19 -68 -30 -79 -74 -74 -33 4 -64 32 -54
48 2 4 -1 14 -7 22 -6 8 -9 18 -7 22 8 13 -15 38 -64 67 -45 26 -48 26 -85 12
-34 -13 -89 -26 -169 -40 -24 -5 -121 -34 -153 -47 -13 -5 -29 -9 -37 -9 -33
0 -133 -58 -176 -102 -44 -45 -68 -88 -48 -88 5 0 9 -7 9 -15 0 -14 56 -125
69 -135 3 -3 23 -26 43 -51 21 -26 72 -83 115 -127 86 -89 133 -143 133 -153
0 -4 6 -22 14 -40 8 -19 15 -38 16 -44 1 -5 7 -16 12 -23 6 -7 11 -45 12 -85
1 -56 6 -80 24 -108 12 -20 22 -39 22 -43 0 -10 66 -67 114 -98 22 -15 46 -31
51 -36 6 -5 24 -17 40 -28 17 -10 32 -22 35 -25 3 -4 54 -32 113 -63 59 -31
114 -61 121 -68 7 -7 25 -22 41 -33 15 -11 35 -27 44 -35 9 -8 28 -24 42 -35
14 -11 27 -24 29 -30 6 -16 24 -33 31 -29 3 1 5 -5 5 -14 0 -53 7 -73 34 -102
17 -18 30 -36 30 -40 0 -5 9 -12 20 -15 11 -3 20 -10 20 -15 0 -5 8 -11 18
-14 9 -3 41 -42 71 -86 45 -67 91 -111 116 -110 3 0 6 0 8 -1 1 0 10 -2 19 -4
9 -2 32 -8 50 -14 18 -6 56 -12 83 -15 28 -2 52 -5 55 -6 3 -1 8 -2 13 -1 6 1
88 -36 207 -94 65 -31 95 -48 145 -83 40 -27 56 -33 84 -28 35 5 78 -11 114
-45 12 -10 24 -19 27 -19 6 0 23 -13 67 -50 7 -6 14 -10 15 -9 6 2 86 -14 132
-27 57 -16 109 -18 134 -5 9 5 40 17 67 26 28 9 57 19 65 22 8 3 23 8 34 10
26 5 88 70 118 124 27 48 38 104 43 217 2 37 10 105 19 152 9 47 15 94 15 105
0 24 9 137 15 185 3 19 8 76 11 125 3 50 8 119 12 155 4 36 7 77 8 91 1 14 5
31 9 37 4 7 -3 25 -14 40 -12 16 -23 49 -25 73 -13 145 -16 206 -19 309 -2 63
-7 126 -10 140 -4 14 -2 46 5 70 13 51 14 83 5 190 -4 41 -8 125 -10 185 -3
106 -23 191 -50 222 -25 28 -34 40 -44 60 -6 11 -24 23 -39 26 -104 20 -102
19 -180 70 -24 15 -43 32 -43 37 0 6 -7 10 -15 10 -8 0 -15 4 -15 9 0 14 -91
49 -144 56 -27 3 -52 7 -56 10 -4 2 -10 2 -13 -1z"/>
<path d="M8095 3315 c-5 -1 -36 -8 -67 -15 -46 -9 -68 -21 -105 -56 -66 -61
-124 -73 -131 -27 -5 34 -30 47 -87 47 -59 -1 -106 -24 -127 -62 -13 -25 -98
-72 -129 -72 -9 0 -22 7 -29 15 -14 17 -40 20 -40 5 0 -5 -6 -10 -14 -10 -7 0
-19 -7 -26 -15 -7 -8 -16 -12 -21 -9 -5 3 -9 1 -9 -3 0 -7 -85 -50 -160 -81
-24 -10 -35 -17 -101 -70 -31 -25 -56 -74 -96 -186 -13 -38 -33 -87 -44 -108
-10 -21 -22 -59 -25 -85 -8 -79 -11 -95 -24 -158 -6 -33 -14 -78 -17 -100 -3
-22 -9 -47 -13 -55 -4 -8 -8 -34 -9 -58 -1 -24 -6 -53 -10 -66 -9 -23 -7 -158
3 -237 6 -40 17 -85 67 -259 17 -61 19 -73 26 -146 5 -65 4 -73 -14 -83 -29
-15 -50 -68 -52 -131 -1 -30 -8 -65 -16 -77 -23 -34 -30 -81 -29 -188 1 -90 4
-105 29 -150 23 -40 24 -47 8 -32 -20 18 -20 17 -11 -35 5 -29 7 -69 3 -88
-13 -72 -13 -86 -3 -130 5 -25 11 -49 12 -55 3 -18 38 -65 47 -65 5 0 26 -11
47 -24 20 -14 62 -32 92 -41 30 -9 96 -34 145 -55 78 -34 119 -49 148 -56 4
-1 8 -2 10 -4 1 -1 10 -3 19 -5 9 -2 32 -8 50 -14 37 -11 78 -20 123 -26 45
-6 118 -18 135 -22 39 -8 150 -2 193 11 51 15 97 8 125 -21 7 -7 16 -13 20
-14 122 -15 166 -16 197 -3 56 23 105 23 166 1 32 -11 56 -23 54 -26 -1 -3 21
-7 50 -9 52 -2 55 -1 70 32 18 37 55 59 88 51 12 -2 38 -7 57 -10 19 -3 53 -9
75 -12 50 -9 141 -9 180 1 17 4 44 8 60 10 69 8 140 18 147 22 3 2 19 -1 34
-6 82 -32 333 -29 359 3 6 7 27 23 48 36 21 13 45 30 54 39 9 9 44 36 77 59
56 39 61 41 73 24 27 -39 118 -30 182 18 91 68 142 127 157 181 36 133 48 154
136 243 49 48 88 89 88 92 0 2 25 46 55 99 30 52 55 100 55 105 0 6 5 11 10
11 6 0 9 3 8 8 -2 11 13 45 29 63 7 9 15 29 17 45 6 42 26 84 63 128 18 22 33
43 33 48 0 4 9 27 20 51 23 51 47 180 55 304 3 51 9 103 13 115 5 13 7 29 6
36 -1 6 -2 25 -3 41 0 17 -20 57 -44 93 -24 35 -54 89 -67 121 -14 38 -39 74
-67 100 -29 27 -43 48 -40 59 5 17 -43 75 -87 103 -20 13 -25 13 -42 0 -10 -8
-27 -15 -37 -15 -34 0 -173 82 -232 136 -31 29 -102 74 -193 121 -97 50 -157
90 -191 127 -14 15 -43 37 -65 50 -23 13 -62 47 -88 74 -35 37 -75 64 -152
101 -58 28 -107 51 -110 51 -3 0 -30 11 -60 25 -30 14 -58 25 -61 25 -4 0 -19
8 -33 18 -42 29 -155 69 -182 64 -80 -13 -123 -7 -220 33 -61 26 -68 26 -120
15 -72 -17 -220 -21 -290 -9 -30 5 -75 12 -100 14 -25 3 -61 7 -80 9 -19 2
-39 3 -45 1z"/>
<path d="M12447 3244 c-1 -1 -29 -4 -62 -6 -33 -3 -70 -10 -81 -16 -12 -6 -24
-9 -27 -6 -3 3 -8 -3 -11 -14 -7 -21 -54 -57 -63 -49 -6 6 -69 -10 -110 -29
-38 -17 -88 -65 -108 -104 -8 -16 -25 -32 -37 -36 -39 -12 -117 -86 -160 -152
-16 -24 -36 -42 -49 -44 -19 -2 -25 -12 -35 -63 -6 -33 -16 -72 -22 -87 -6
-16 -8 -28 -4 -28 4 0 2 -4 -4 -8 -8 -6 -22 -49 -38 -121 -1 -8 4 -27 11 -43
16 -30 9 -88 -9 -88 -7 0 -8 -12 -3 -32 20 -95 20 -97 10 -178 -4 -25 -7 -67
-8 -95 -1 -27 -6 -56 -10 -62 -5 -7 -6 -13 -2 -13 3 0 -1 -16 -10 -36 -8 -19
-14 -38 -14 -42 1 -4 0 -11 -1 -17 -2 -5 -4 -64 -4 -130 -1 -66 -6 -143 -10
-171 -8 -61 -15 -142 -20 -241 -3 -68 -18 -103 -43 -103 -12 0 -43 -37 -36
-43 2 -3 -1 -15 -7 -27 -8 -15 -13 -95 -14 -237 -2 -187 -5 -217 -19 -224 -13
-8 -14 -15 -7 -34 5 -14 7 -52 3 -85 -4 -44 -1 -71 11 -104 18 -46 85 -115
115 -117 91 -7 96 -6 131 26 64 58 90 69 165 71 39 1 75 -2 80 -6 6 -4 17 -7
25 -8 74 -2 281 -13 305 -16 66 -9 233 -20 282 -18 68 1 95 21 135 100 18 34
36 62 41 62 4 0 5 5 2 10 -3 6 -3 10 2 10 9 0 33 70 33 97 0 26 29 103 43 118
7 7 22 15 32 19 11 4 32 23 48 43 l27 36 0 174 c0 125 -3 173 -12 173 -6 0 -8
3 -5 6 3 4 2 14 -2 23 -6 10 -4 31 5 56 21 61 20 792 -2 854 -13 40 -13 48 1
83 13 32 15 98 15 413 l0 374 -40 22 c-21 12 -37 25 -35 29 11 18 -73 112
-106 116 -5 1 -10 2 -11 4 -6 5 -276 18 -281 14z"/>
<path d="M7828 3213 c6 -2 18 -2 25 0 6 3 1 5 -13 5 -14 0 -19 -2 -12 -5z"/>
</g>
</svg>
